<svg width="1400" height="520" viewBox="0 0 1400 520" fill="none" xmlns="http://www.w3.org/2000/svg">
  <defs>
    <linearGradient id="bg" x1="0" y1="0" x2="1400" y2="520" gradientUnits="userSpaceOnUse">
      <stop stop-color="#070A0E"/>
      <stop offset="0.48" stop-color="#101719"/>
      <stop offset="1" stop-color="#15120A"/>
    </linearGradient>
    <radialGradient id="goldGlow" cx="0" cy="0" r="1" gradientUnits="userSpaceOnUse" gradientTransform="translate(1060 110) rotate(139) scale(600 360)">
      <stop stop-color="#F7C948" stop-opacity="0.35"/>
      <stop offset="1" stop-color="#F7C948" stop-opacity="0"/>
    </radialGradient>
    <radialGradient id="greenGlow" cx="0" cy="0" r="1" gradientUnits="userSpaceOnUse" gradientTransform="translate(360 430) rotate(-28) scale(520 260)">
      <stop stop-color="#34D399" stop-opacity="0.22"/>
      <stop offset="1" stop-color="#34D399" stop-opacity="0"/>
    </radialGradient>
    <filter id="softShadow" x="-20%" y="-20%" width="140%" height="140%">
      <feDropShadow dx="0" dy="24" stdDeviation="28" flood-color="#000" flood-opacity="0.48"/>
    </filter>
  </defs>

  <rect width="1400" height="520" rx="38" fill="url(#bg)"/>
  <rect width="1400" height="520" rx="38" fill="url(#goldGlow)"/>
  <rect width="1400" height="520" rx="38" fill="url(#greenGlow)"/>

  <g opacity="0.18">
    <path d="M-40 394C180 288 344 455 566 342C788 229 956 290 1160 150C1264 79 1348 55 1440 42" stroke="#F7C948" stroke-width="2"/>
    <path d="M-40 435C178 352 360 449 574 392C788 335 919 226 1132 242C1276 253 1358 181 1440 130" stroke="#34D399" stroke-width="1.5"/>
  </g>

  <g filter="url(#softShadow)">
    <rect x="82" y="74" width="1236" height="372" rx="34" fill="#080C10" fill-opacity="0.88" stroke="#273237"/>
  </g>

  <g transform="translate(118 112)">
    <rect width="118" height="32" rx="16" fill="#F7C948"/>
    <text x="59" y="22" text-anchor="middle" fill="#090909" font-family="Inter,Segoe UI,Arial,sans-serif" font-size="14" font-weight="900" letter-spacing="1.4">WINDOWS</text>
  </g>

  <text x="118" y="194" fill="#FFFFFF" font-family="Inter,Segoe UI,Arial,sans-serif" font-size="76" font-weight="950" letter-spacing="-2.5">Panagia.pdf</text>
  <text x="122" y="250" fill="#F7C948" font-family="Inter,Segoe UI,Arial,sans-serif" font-size="31" font-weight="850">Translate, read, publish, and share multilingual PDFs.</text>
  <text x="122" y="302" fill="#B8C6C0" font-family="Inter,Segoe UI,Arial,sans-serif" font-size="25" font-weight="500">AI-powered PDF translation • Global library • Social hub • Export tools</text>

  <g transform="translate(122 344)">
    <rect width="178" height="50" rx="25" fill="#F7C948"/>
    <text x="89" y="32" text-anchor="middle" fill="#080808" font-family="Inter,Segoe UI,Arial,sans-serif" font-size="16" font-weight="950" letter-spacing="0.8">DOWNLOAD</text>
  </g>
  <g transform="translate(322 344)">
    <rect width="196" height="50" rx="25" fill="transparent" stroke="#33413D"/>
    <text x="98" y="32" text-anchor="middle" fill="#D9E2DE" font-family="Inter,Segoe UI,Arial,sans-serif" font-size="16" font-weight="800">VIEW RELEASES</text>
  </g>

  <g transform="translate(982 108)">
    <rect width="246" height="246" rx="36" fill="#111820" stroke="#2B383B"/>
    <rect x="36" y="42" width="138" height="168" rx="16" fill="#F8FAFC"/>
    <path d="M174 42L210 78V210C210 218.837 202.837 226 194 226H52C43.1634 226 36 218.837 36 210V58C36 49.1634 43.1634 42 52 42H174Z" fill="#F8FAFC"/>
    <path d="M174 42V78H210" fill="#DDE6E3"/>
    <rect x="64" y="92" width="118" height="12" rx="6" fill="#F7C948"/>
    <rect x="64" y="124" width="95" height="12" rx="6" fill="#34D399"/>
    <rect x="64" y="156" width="128" height="12" rx="6" fill="#60A5FA"/>
    <rect x="64" y="188" width="78" height="12" rx="6" fill="#F472B6"/>
    <circle cx="196" cy="198" r="42" fill="#F7C948"/>
    <text x="196" y="212" text-anchor="middle" fill="#080808" font-family="Inter,Segoe UI,Arial,sans-serif" font-size="40" font-weight="950">文</text>
  </g>
</svg>
