<svg width="720" height="112" viewBox="0 0 720 112" fill="none" xmlns="http://www.w3.org/2000/svg">
  <defs>
    <linearGradient id="btn" x1="0" y1="0" x2="720" y2="112" gradientUnits="userSpaceOnUse">
      <stop stop-color="#F7C948"/>
      <stop offset="1" stop-color="#F59E0B"/>
    </linearGradient>
    <filter id="shadow" x="-10%" y="-35%" width="120%" height="180%">
      <feDropShadow dx="0" dy="10" stdDeviation="12" flood-color="#000" flood-opacity="0.35"/>
    </filter>
  </defs>
  <rect x="5" y="6" width="710" height="100" rx="18" fill="url(#btn)" filter="url(#shadow)"/>
  <g transform="translate(44 30)">
    <path d="M24 0v34m0 0 14-14M24 34 10 20M2 50h44" stroke="#070707" stroke-width="7" stroke-linecap="round" stroke-linejoin="round"/>
  </g>
  <text x="126" y="49" fill="#070707" font-family="Inter,Segoe UI,Arial,sans-serif" font-size="30" font-weight="950" letter-spacing="1.4">DOWNLOAD PANAGIA.PDF</text>
  <text x="128" y="78" fill="#231A00" font-family="Inter,Segoe UI,Arial,sans-serif" font-size="13" font-weight="900" letter-spacing="5">LATEST WINDOWS INSTALLER</text>
  <g transform="translate(580 29)">
    <rect x="0" y="0" width="54" height="54" rx="13" fill="#080808" fill-opacity="0.12"/>
    <path d="M11 13h15v15H11V13Zm17 0h15v15H28V13ZM11 30h15v15H11V30Zm17 0h15v15H28V30Z" fill="#070707"/>
  </g>
  <text x="662" y="63" text-anchor="middle" fill="#070707" font-family="Inter,Segoe UI,Arial,sans-serif" font-size="17" font-weight="950">10+</text>
</svg>
